<svg width="24" height="24" viewBox="0 0 24 24" fill="none" xmlns="http://www.w3.org/2000/svg">
<g id="apple-pay 1" clip-path="url(#clip0_28214_47836)">
<g id="Group">
<g id="Group_2">
<g id="Group_3">
<path id="Vector" d="M4.5353 8.22205C4.81786 7.86862 5.00958 7.3941 4.95905 6.90918C4.54543 6.92976 4.04068 7.18209 3.74846 7.53576C3.48605 7.83866 3.25383 8.33305 3.3144 8.79763C3.77865 8.8379 4.24257 8.56555 4.5353 8.22205Z" fill="black"/>
<path id="Vector_2" d="M4.95438 8.88831C4.28008 8.84814 3.70675 9.271 3.38472 9.271C3.06255 9.271 2.56942 8.90856 2.03608 8.91831C1.34191 8.92853 0.6978 9.32101 0.345534 9.94525C-0.379013 11.194 0.154331 13.0465 0.858909 14.0635C1.20105 14.5667 1.61346 15.1207 2.15678 15.1008C2.67016 15.0806 2.87139 14.7684 3.49539 14.7684C4.11897 14.7684 4.30024 15.1008 4.84366 15.0907C5.40724 15.0806 5.75955 14.5873 6.10169 14.0836C6.49422 13.51 6.65491 12.9562 6.66499 12.9257C6.65486 12.9157 5.57828 12.5027 5.5683 11.2643C5.55813 10.2273 6.41355 9.73408 6.45382 9.70351C5.97082 8.98914 5.21603 8.90856 4.95438 8.88831Z" fill="black"/>
</g>
<g id="Group_4">
<path id="Vector_3" d="M10.826 7.48535C12.2915 7.48535 13.3121 8.4956 13.3121 9.96644C13.3121 11.4425 12.2705 12.458 10.7892 12.458H9.16653V15.0386H7.99414V7.48535H10.826ZM9.16648 11.4739H10.5117C11.5325 11.4739 12.1134 10.9244 12.1134 9.97169C12.1134 9.0191 11.5325 8.4747 10.517 8.4747H9.16648V11.4739Z" fill="black"/>
<path id="Vector_4" d="M13.6191 13.4736C13.6191 12.5104 14.3572 11.9189 15.6659 11.8456L17.1733 11.7567V11.3327C17.1733 10.7203 16.7598 10.3539 16.069 10.3539C15.4145 10.3539 15.0062 10.6679 14.9069 11.16H13.8391C13.9019 10.1654 14.7498 9.43262 16.1108 9.43262C17.4455 9.43262 18.2987 10.1393 18.2987 11.2437V15.0386H17.2151V14.1331H17.189C16.8698 14.7455 16.1735 15.1328 15.4513 15.1328C14.3729 15.1328 13.6191 14.4628 13.6191 13.4736ZM17.1733 12.9763V12.5419L15.8175 12.6256C15.1423 12.6728 14.7602 12.9711 14.7602 13.4422C14.7602 13.9237 15.158 14.2378 15.7652 14.2378C16.5556 14.2377 17.1733 13.6934 17.1733 12.9763Z" fill="black"/>
<path id="Vector_5" d="M19.3217 17.0645V16.1485C19.4054 16.1694 19.5938 16.1694 19.688 16.1694C20.2114 16.1694 20.4941 15.9496 20.6668 15.3843C20.6668 15.3738 20.7663 15.0493 20.7663 15.044L18.7773 9.53223H20.002L21.3946 14.0129H21.4154L22.8079 9.53223H24.0012L21.9387 15.3266C21.4678 16.6615 20.9234 17.0907 19.7823 17.0907C19.688 17.0907 19.4053 17.0802 19.3217 17.0645Z" fill="black"/>
</g>
</g>
</g>
</g>
<defs>
<clipPath id="clip0_28214_47836">
<rect width="24" height="24" fill="white"/>
</clipPath>
</defs>
</svg>
