<svg width="24" height="24" viewBox="0 0 24 24" fill="none" xmlns="http://www.w3.org/2000/svg">
<g id="money 1">
<g id="&#229;&#155;&#190;&#229;&#177;&#130;_x0020_1">
<g id="_289893376">
<path id="_289506944" d="M9.13694 16.5278C11.6418 16.5278 13.6723 14.4972 13.6723 11.9924C13.6723 9.48759 11.6418 7.45703 9.13694 7.45703C6.63212 7.45703 4.60156 9.48759 4.60156 11.9924C4.60156 14.4972 6.63212 16.5278 9.13694 16.5278Z" fill="#FF6041"/>
<path id="_289506128" d="M14.8498 16.5278C17.3547 16.5278 19.3852 14.4972 19.3852 11.9924C19.3852 9.48759 17.3547 7.45703 14.8498 7.45703C12.345 7.45703 10.3145 9.48759 10.3145 11.9924C10.3145 14.4972 12.345 16.5278 14.8498 16.5278Z" fill="#FFD941"/>
<path id="_289890808" fill-rule="evenodd" clip-rule="evenodd" d="M12.0014 8.4834C13.0234 9.31416 13.6767 10.5806 13.6767 12.0001C13.6767 13.4195 13.0234 14.686 12.0014 15.5167C10.9794 14.686 10.3262 13.4195 10.3262 12.0001C10.3262 10.5806 10.9794 9.31416 12.0014 8.4834Z" fill="#FFD941"/>
<g id="Clip path group">
<mask id="mask0_28214_47847" style="mask-type:luminance" maskUnits="userSpaceOnUse" x="10" y="8" width="4" height="8">
<g id="id0">
<path id="Vector" d="M12.0014 8.4834C13.0234 9.31416 13.6767 10.5806 13.6767 12.0001C13.6767 13.4195 13.0234 14.686 12.0014 15.5167C10.9794 14.686 10.3262 13.4195 10.3262 12.0001C10.3262 10.5806 10.9794 9.31416 12.0014 8.4834Z" fill="white"/>
</g>
</mask>
<g mask="url(#mask0_28214_47847)">
<g id="Group">
<g id="Group_2">
<g id="Group_3">
<path id="_213036096" fill-rule="evenodd" clip-rule="evenodd" d="M9.48633 9.3761H14.8939V9.96483H9.48633V9.3761Z" fill="#FF6041"/>
<path id="_213035640" fill-rule="evenodd" clip-rule="evenodd" d="M9.48633 10.5314H14.8939V11.1201H9.48633V10.5314Z" fill="#FF6041"/>
<path id="_213037800" fill-rule="evenodd" clip-rule="evenodd" d="M9.48633 11.7092H14.8939V12.298H9.48633V11.7092Z" fill="#FF6041"/>
<path id="_213037584" fill-rule="evenodd" clip-rule="evenodd" d="M9.48633 12.8644H14.8939V13.4531H9.48633V12.8644Z" fill="#FF6041"/>
<path id="_213037344" fill-rule="evenodd" clip-rule="evenodd" d="M9.48633 14.0205H14.8939V14.6092H9.48633V14.0205Z" fill="#FF6041"/>
</g>
</g>
</g>
</g>
</g>
</g>
</g>
</g>
</svg>
