<svg width="24" height="24" viewBox="0 0 24 24" fill="none" xmlns="http://www.w3.org/2000/svg">
<g id="paypal 1" clip-path="url(#clip0_28214_47811)">
<path id="Vector" d="M18.7371 9.83982C18.1479 9.83982 17.6765 9.99694 17.2837 10.0755L17.1659 10.9789C17.3623 10.9004 17.9122 10.7433 18.3836 10.704C18.8549 10.704 19.1299 10.7825 19.0513 11.2146C17.6372 11.2146 16.6945 11.4896 16.4981 12.4323C16.2232 14.0035 17.9515 14.0428 18.6192 13.3357L18.5407 13.7678H19.7976L20.3476 11.2146C20.544 10.1541 19.6012 9.80054 18.7371 9.83982ZM18.8156 12.4716C18.7371 12.7858 18.4621 12.9037 18.1479 12.9429C17.8729 12.9429 17.6372 12.7858 17.7944 12.4716C17.9515 12.2359 18.305 12.2359 18.58 12.2359C18.6585 12.2359 18.7764 12.2359 18.8942 12.2359C18.8549 12.1966 18.8156 12.3537 18.8156 12.4716Z" fill="#32A6CE"/>
<path id="Vector_2" d="M17.1659 10.9787C17.3623 10.9002 17.9122 10.7431 18.3836 10.7038C18.8549 10.7038 19.1299 10.7823 19.0513 11.2144C17.6372 11.2144 16.6945 11.4894 16.4981 12.4321C16.2232 14.0033 17.9515 14.0426 18.6192 13.3355L18.5407 13.7676H19.7976L20.3476 11.2144C20.5832 10.1539 19.6012 9.87891 18.7371 9.87891M18.8156 12.4714C18.7371 12.7856 18.4621 12.9035 18.1479 12.9427C17.8729 12.9427 17.6372 12.7856 17.7944 12.4714C17.9515 12.2357 18.305 12.2357 18.58 12.2357C18.6585 12.2357 18.7764 12.2357 18.8942 12.2357C18.8549 12.1964 18.8156 12.3535 18.8156 12.4714Z" fill="#1A80AD"/>
<path id="Vector_3" d="M21.408 8.66113L20.3867 13.7675H21.6437L22.7042 8.66113H21.408Z" fill="#32A6CE"/>
<path id="Vector_4" d="M22.3114 8.66113L20.3867 13.7675H21.6437L22.7042 8.66113H21.408H22.3114Z" fill="#1A80AD"/>
<path id="Vector_5" d="M15.5556 8.66113H13.2381L12.2168 13.7675H13.5916L13.9451 12.1963H14.9271C15.8698 12.1963 16.6554 11.6464 16.8518 10.6644C17.0482 9.52529 16.2233 8.66113 15.5556 8.66113ZM15.5163 10.4287C15.4377 10.7822 15.0842 11.0179 14.7307 11.0179H14.1022L14.3772 9.83953H15.0449C15.3985 9.83953 15.5949 10.0752 15.5163 10.4287Z" fill="#32A6CE"/>
<path id="Vector_6" d="M15.5558 8.66113H13.9846L12.1777 13.7675H13.5525L13.906 12.1963H14.888C15.8308 12.1963 16.6164 11.6464 16.8128 10.6644C17.0484 9.52529 16.2236 8.66113 15.5558 8.66113ZM15.5165 10.4287C15.438 10.7822 15.0844 11.0179 14.7309 11.0179H14.1024L14.3774 9.83953H15.0452C15.3987 9.83953 15.5951 10.0752 15.5165 10.4287Z" fill="#1A80AD"/>
<path id="Vector_7" d="M6.48139 9.83958C5.8922 9.83958 5.42084 9.9967 5.06732 10.0753L4.94948 10.9787C5.1066 10.9001 5.6958 10.743 6.16716 10.7037C6.63851 10.7037 6.91347 10.7823 6.83491 11.2144C5.46012 11.2144 4.5174 11.4893 4.321 12.432C4.04604 14.0032 5.73508 14.0425 6.40283 13.3355L6.32428 13.7676H7.58123L8.13115 11.2144C8.32755 10.1538 7.34555 9.8003 6.48139 9.83958ZM6.59923 12.4713C6.52067 12.7856 6.24572 12.9034 5.93148 12.9427C5.65652 12.9427 5.42084 12.7856 5.61724 12.4713C5.77436 12.2357 6.12788 12.2357 6.36356 12.2357C6.4814 12.2357 6.55995 12.2357 6.67779 12.2357C6.63851 12.1964 6.59923 12.3535 6.59923 12.4713Z" fill="#21789E"/>
<path id="Vector_8" d="M4.98854 10.9787C5.14566 10.9002 5.73486 10.7431 6.20622 10.7038C6.67758 10.7038 6.95254 10.7823 6.87398 11.2144C5.49918 11.2144 4.55646 11.4894 4.36006 12.4321C4.08511 14.0033 5.77414 14.0426 6.4419 13.3355L6.32406 13.7676H7.58101L8.13093 11.2144C8.36661 10.1539 7.38461 9.87891 6.52046 9.87891M6.59902 12.4714C6.52046 12.7856 6.2455 12.9035 5.93126 12.9427C5.6563 12.9427 5.42062 12.7856 5.61702 12.4714C5.77414 12.2357 6.12766 12.2357 6.36334 12.2357C6.48118 12.2357 6.55974 12.2357 6.67758 12.2357C6.6383 12.1964 6.59902 12.3535 6.59902 12.4714Z" fill="#1A5B80"/>
<path id="Vector_9" d="M8.64085 9.83984H9.8978L10.0942 12.0395L11.3512 9.83984H12.6474L9.66212 15.339H8.24805L9.15148 13.6893L8.64085 9.83984Z" fill="#21789E"/>
<path id="Vector_10" d="M9.8978 9.9184L10.0942 12.0788L11.3512 9.83984H12.6474L9.66212 15.339H8.24805L9.15148 13.7286" fill="#1A5B80"/>
<path id="Vector_11" d="M3.37807 8.66125H1.02128L0 13.7676H1.3748L1.72831 12.1964H2.71031C3.65303 12.1964 4.43863 11.6465 4.63502 10.6645C4.8707 9.52541 4.04583 8.66125 3.37807 8.66125ZM3.33879 10.4288C3.26023 10.7824 2.90671 11.018 2.55319 11.018H1.92471L2.19967 9.83965H2.86743C3.22095 9.83965 3.41735 10.0753 3.33879 10.4288Z" fill="#21789E"/>
<path id="Vector_12" d="M3.37807 8.66125H2.31751L0 13.7676H1.3748L1.72831 12.1964H2.71031C3.65303 12.1964 4.43863 11.6465 4.63502 10.6645C4.8707 9.52541 4.04583 8.66125 3.37807 8.66125ZM3.33879 10.4288C3.26023 10.7824 2.90671 11.018 2.55319 11.018H1.92471L2.19967 9.83965H2.86743C3.22095 9.83965 3.41735 10.0753 3.33879 10.4288Z" fill="#1A5B80"/>
<g id="Group">
<path id="Vector_13" d="M6.24572 11.2148C5.18516 11.2934 4.47812 11.6076 4.321 12.3932C4.04604 13.9644 5.73508 14.0037 6.40283 13.2967L6.32428 13.768H7.58123L7.77763 12.8253L6.24572 11.2148ZM6.59923 12.4718C6.52067 12.786 6.24572 12.9039 5.93148 12.9432C5.65652 12.9432 5.42084 12.786 5.61724 12.4718C5.77436 12.2361 6.12788 12.2361 6.36356 12.2361C6.4814 12.2361 6.55995 12.2361 6.67779 12.2361C6.63851 12.1968 6.59923 12.354 6.59923 12.4718Z" fill="#06435E"/>
<path id="Vector_14" d="M10.1723 12.0002L10.0938 12.1181L10.9186 12.9037L12.6469 9.83984H11.3507L10.1723 12.0002Z" fill="#06435E"/>
<path id="Vector_15" d="M1.37414 13.7675L1.72766 12.1963L0.117188 13.7675H1.37414Z" fill="#06435E"/>
</g>
<g id="Group_2">
<path id="Vector_16" d="M13.5519 13.768L13.9054 12.1183V12.1576L12.2949 13.768H13.5519Z" fill="#2273AA"/>
<path id="Vector_17" d="M18.4619 11.2148C17.4014 11.2934 16.6943 11.6076 16.5372 12.3932C16.2622 13.9644 17.9906 14.0037 18.6583 13.2967L18.5405 13.768H19.7974L19.9938 12.8253L18.4619 11.2148ZM18.8154 12.4718C18.7369 12.786 18.4619 12.9039 18.1477 12.9432C17.8727 12.9432 17.637 12.786 17.7942 12.4718C17.9513 12.2361 18.3048 12.2361 18.5797 12.2361C18.6583 12.2361 18.7761 12.2361 18.894 12.2361C18.8547 12.1968 18.8154 12.354 18.8154 12.4718Z" fill="#2273AA"/>
<path id="Vector_18" d="M21.2902 11.4502L20.3867 13.7677H21.6437L21.9972 12.1965L21.2902 11.4502Z" fill="#2273AA"/>
</g>
<g id="Group_3">
<path id="Vector_19" d="M22.9796 9.48614V8.93623H22.7832V8.85767H23.2938V8.93623H23.0974V9.48614H22.9796Z" fill="#32A6CE"/>
<path id="Vector_20" d="M23.373 9.48612V8.85764H23.4909L23.648 9.28972C23.648 9.329 23.6873 9.36828 23.6873 9.36828C23.6873 9.329 23.6873 9.329 23.7266 9.25044L23.8837 8.81836H24.0015V9.44684H23.923V8.89692L23.7266 9.44684H23.6087L23.4123 8.89692V9.44684H23.373V9.48612Z" fill="#32A6CE"/>
</g>
</g>
<defs>
<clipPath id="clip0_28214_47811">
<rect width="24" height="24" fill="white"/>
</clipPath>
</defs>
</svg>
