<svg width="24" height="24" viewBox="0 0 24 24" fill="none" xmlns="http://www.w3.org/2000/svg">
<g id="visa 1" clip-path="url(#clip0_28214_47793)">
<path id="Vector" d="M8.80078 15.448L10.0198 8.59082H11.9246L10.7436 15.448H8.80078Z" fill="#3C58BF"/>
<path id="Vector_2" d="M8.80078 15.448L10.3627 8.59082H11.9246L10.7436 15.448H8.80078Z" fill="#293688"/>
<path id="Vector_3" d="M17.6372 8.66707C17.2562 8.51469 16.6467 8.3623 15.8848 8.3623C13.98 8.3623 12.6086 9.31469 12.6086 10.6861C12.6086 11.7147 13.561 12.248 14.3229 12.5909C15.0848 12.9337 15.3134 13.1623 15.3134 13.4671C15.3134 13.9242 14.7038 14.1528 14.1705 14.1528C13.4086 14.1528 12.9895 14.0385 12.3419 13.7718L12.0753 13.6575L11.8086 15.2194C12.2657 15.4099 13.1038 15.6004 13.98 15.6004C15.9991 15.6004 17.3324 14.648 17.3324 13.2004C17.3324 12.4004 16.8372 11.7909 15.6943 11.2956C15.0086 10.9528 14.5895 10.7623 14.5895 10.4194C14.5895 10.1147 14.9324 9.80992 15.6943 9.80992C16.3419 9.80992 16.7991 9.92421 17.1419 10.0766L17.3324 10.1528L17.6372 8.66707Z" fill="#3C58BF"/>
<path id="Vector_4" d="M17.6372 8.66707C17.2562 8.51469 16.6467 8.3623 15.8848 8.3623C13.98 8.3623 12.9515 9.31469 12.9515 10.6861C12.9515 11.7147 13.561 12.248 14.3229 12.5909C15.0848 12.9337 15.3134 13.1623 15.3134 13.4671C15.3134 13.9242 14.7038 14.1528 14.1705 14.1528C13.4086 14.1528 12.9895 14.0385 12.3419 13.7718L12.0753 13.6575L11.8086 15.2194C12.2657 15.4099 13.1038 15.6004 13.98 15.6004C15.9991 15.6004 17.3324 14.648 17.3324 13.2004C17.3324 12.4004 16.8372 11.7909 15.6943 11.2956C15.0086 10.9528 14.5895 10.7623 14.5895 10.4194C14.5895 10.1147 14.9324 9.80992 15.6943 9.80992C16.3419 9.80992 16.7991 9.92421 17.1419 10.0766L17.3324 10.1528L17.6372 8.66707Z" fill="#293688"/>
<path id="Vector_5" d="M20.914 8.59082C20.4569 8.59082 20.114 8.62892 19.9235 9.08606L17.0664 15.448H19.1235L19.5045 14.3051H21.9426L22.1712 15.448H23.9997L22.3997 8.59082H20.914ZM20.0378 13.1622C20.1521 12.8194 20.7997 11.1432 20.7997 11.1432C20.7997 11.1432 20.9521 10.7242 21.0664 10.4575L21.1807 11.1051C21.1807 11.1051 21.5616 12.8194 21.6378 13.2003H20.0378V13.1622Z" fill="#3C58BF"/>
<path id="Vector_6" d="M21.3712 8.59082C20.914 8.59082 20.5712 8.62892 20.3807 9.08606L17.0664 15.448H19.1235L19.5045 14.3051H21.9426L22.1712 15.448H23.9997L22.3997 8.59082H21.3712ZM20.0378 13.1622C20.1902 12.7813 20.7997 11.1432 20.7997 11.1432C20.7997 11.1432 20.9521 10.7242 21.0664 10.4575L21.1807 11.1051C21.1807 11.1051 21.5616 12.8194 21.6378 13.2003H20.0378V13.1622Z" fill="#293688"/>
<path id="Vector_7" d="M5.29464 13.3908L5.10417 12.4003C4.76131 11.2575 3.65655 10.0003 2.4375 9.39081L4.15179 15.486H6.20893L9.29464 8.62891H7.2375L5.29464 13.3908Z" fill="#3C58BF"/>
<path id="Vector_8" d="M5.29464 13.3908L5.10417 12.4003C4.76131 11.2575 3.65655 10.0003 2.4375 9.39081L4.15179 15.486H6.20893L9.29464 8.62891H7.61845L5.29464 13.3908Z" fill="#293688"/>
<path id="Vector_9" d="M0 8.59082L0.342857 8.66701C2.78095 9.23844 4.45714 10.6861 5.10476 12.4003L4.41905 9.16225C4.30476 8.70511 3.9619 8.59082 3.54286 8.59082H0Z" fill="#FFBC00"/>
<path id="Vector_10" d="M0 8.59082C2.4381 9.16225 4.45714 10.648 5.10476 12.3622L4.45714 9.65749C4.34286 9.20034 3.9619 8.93368 3.54286 8.93368L0 8.59082Z" fill="#F7981D"/>
<path id="Vector_11" d="M0 8.59082C2.4381 9.16225 4.45714 10.648 5.10476 12.3622L4.64762 10.8765C4.53333 10.4194 4.38095 9.96225 3.84762 9.77177L0 8.59082Z" fill="#ED7C00"/>
<g id="Group">
<path id="Vector_12" d="M7.20037 13.1621L5.90513 11.8668L5.29561 13.3144L5.14323 12.3621C4.80037 11.2192 3.69561 9.96206 2.47656 9.35254L4.19085 15.4478H6.24799L7.20037 13.1621Z" fill="#051244"/>
<path id="Vector_13" d="M10.7436 15.4477L9.10554 13.7715L8.80078 15.4477H10.7436Z" fill="#051244"/>
<path id="Vector_14" d="M15.1248 13.0859C15.2772 13.2383 15.3534 13.3526 15.3153 13.505C15.3153 13.9621 14.7058 14.1907 14.1725 14.1907C13.4105 14.1907 12.9915 14.0764 12.3439 13.8097L12.0772 13.6955L11.8105 15.2574C12.2677 15.4478 13.1058 15.6383 13.982 15.6383C15.201 15.6383 16.1915 15.2955 16.7629 14.6859L15.1248 13.0859Z" fill="#051244"/>
<path id="Vector_15" d="M17.334 15.4475H19.1245L19.5054 14.3046H21.9435L22.1721 15.4475H24.0007L23.353 12.6666L21.0673 10.457L21.1816 11.0666C21.1816 11.0666 21.5626 12.7808 21.6387 13.1618H20.0387C20.1911 12.7808 20.8007 11.1427 20.8007 11.1427C20.8007 11.1427 20.953 10.7237 21.0673 10.457" fill="#051244"/>
</g>
</g>
<defs>
<clipPath id="clip0_28214_47793">
<rect width="24" height="24" fill="white"/>
</clipPath>
</defs>
</svg>
